# Blender 5.1.2
# www.blender.org
mtllib Camera.mtl
o Camera
v -0.198942 -0.198942 0.354329
v -0.198942 0.198942 0.354329
v -0.198942 -0.198942 0.282502
v -0.198942 0.198942 0.282502
v 0.198942 -0.198942 0.354329
v 0.198942 0.198942 0.354329
v 0.198942 -0.198942 0.282502
v 0.198942 0.198942 0.282502
v -0.110095 0.110095 0.231206
v -0.110095 -0.110095 0.231206
v 0.110095 -0.110095 0.231206
v 0.110095 0.110095 0.231206
v -0.110095 0.110095 0.156444
v -0.110095 -0.110095 0.156444
v 0.110095 -0.110095 0.156444
v 0.110095 0.110095 0.156444
v -0.494121 0.288913 0.099672
v -0.494121 -0.288913 0.099672
v 0.494121 -0.288913 0.099672
v 0.494121 0.288913 0.099672
v -0.467557 0.262349 0.008146
v -0.467557 -0.262349 0.008146
v 0.467557 -0.262349 0.008146
v 0.467557 0.262349 0.008146
v -0.494121 0.288913 0.008146
v -0.494121 -0.288913 0.008146
v 0.494121 -0.288913 0.008146
v 0.494121 0.288913 0.008146
v -0.467557 0.262349 0.039571
v -0.467557 -0.262349 0.039571
v 0.467557 -0.262349 0.039571
v 0.467557 0.262349 0.039571
vn -1.0000 -0.0000 -0.0000
vn 0.5000 -0.0000 -0.8660
vn 1.0000 -0.0000 -0.0000
vn -0.0000 -0.0000 1.0000
vn -0.0000 -1.0000 -0.0000
vn -0.0000 1.0000 -0.0000
vn -0.0000 -0.5000 -0.8660
vn -0.0000 0.5000 -0.8660
vn -0.5000 -0.0000 -0.8660
vn -0.0000 0.3026 0.9531
vn -0.1462 -0.0000 0.9892
vn 0.1462 -0.0000 0.9892
vn -0.0000 -0.3026 0.9531
vn -0.0000 -0.0000 -1.0000
vt 0.337148 0.777055
vt 0.337148 0.564310
vt 0.375554 0.564310
vt 0.375554 0.777055
vt 0.000000 0.528407
vt 0.212746 0.528407
vt 0.165240 0.575912
vt 0.047506 0.575912
vt 0.413959 0.564310
vt 0.413959 0.777055
vt 0.260337 0.777055
vt 0.047592 0.777055
vt 0.047592 0.564310
vt 0.260337 0.564310
vt 0.298743 0.564310
vt 0.298743 0.777055
vt 0.260337 0.777055
vt 0.260337 0.564310
vt 0.337148 0.564310
vt 0.298743 0.777055
vt 0.298743 0.564310
vt 0.163801 0.686641
vt 0.163801 0.804375
vt 0.123827 0.804375
vt 0.123827 0.686641
vt 0.212746 0.741152
vt 0.165240 0.693647
vt -0.000000 0.741152
vt 0.047506 0.693647
vt 0.095612 0.205336
vt 0.095612 0.323071
vt -0.000000 0.528407
vt 0.000000 0.000000
vt 0.288981 0.533003
vt 0.288981 0.415269
vt 0.328956 0.415269
vt 0.328956 0.533003
vt 0.288981 0.650738
vt 0.288981 0.533003
vt 0.328956 0.533003
vt 0.328956 0.650738
vt 0.000000 0.858887
vt 0.000000 0.741152
vt 0.039975 0.741152
vt 0.039975 0.858887
vt 0.019347 0.874644
vt 0.468074 0.874644
vt 0.468074 0.916202
vt 0.019347 0.916202
vt 0.213347 0.205336
vt 0.308959 0.000000
vt 0.213347 0.323071
vt 0.308959 0.528407
vt 0.238572 0.415269
vt 0.238572 0.915269
vt 0.221770 0.915269
vt 0.221770 0.415269
vt 0.468074 0.916202
vt 0.468074 0.957761
vt 0.019347 0.957761
vt 0.123893 0.724228
vt 0.123893 0.415269
vt 0.172831 0.415269
vt 0.172831 0.724228
vt 0.221770 0.415269
vt 0.221770 0.724228
vt 0.344013 0.254345
vt 0.465104 0.254345
vt 0.471234 0.260475
vt 0.337883 0.260475
vt 0.465104 0.038538
vt 0.471234 0.032407
vt 0.344013 0.038538
vt 0.337883 0.032407
vt 0.898472 0.500000
vt 0.617919 0.500000
vt 0.617919 -0.000000
vt 0.898472 0.000000
vt 0.255375 0.695822
vt 0.255375 0.415269
vt 0.272178 0.415269
vt 0.272178 0.695822
vt 0.288981 0.695822
vt 0.272178 0.695822
vt 0.272178 0.415269
vt 0.255375 0.415269
vt 0.255375 0.915269
s 0
usemtl Camera
f 1/1/1 2/2/1 4/3/1 3/4/1
f 8/5/2 7/6/2 11/7/2 12/8/2
f 7/4/3 8/3/3 6/9/3 5/10/3
f 5/11/4 6/12/4 2/13/4 1/14/4
f 3/15/5 7/16/5 5/17/5 1/18/5
f 8/19/6 4/1/6 2/20/6 6/21/6
f 12/22/3 11/23/3 15/24/3 16/25/3
f 7/6/7 3/26/7 10/27/7 11/7/7
f 4/28/8 8/5/8 12/8/8 9/29/8
f 3/26/9 4/28/9 9/29/9 10/27/9
f 13/30/10 16/31/10 20/32/10 17/33/10
f 11/34/5 10/35/5 14/36/5 15/37/5
f 9/38/6 12/39/6 16/40/6 13/41/6
f 10/42/1 9/43/1 13/44/1 14/45/1
f 19/46/5 18/47/5 26/48/5 27/49/5
f 14/50/11 13/30/11 17/33/11 18/51/11
f 16/31/12 15/52/12 19/53/12 20/32/12
f 15/52/13 14/50/13 18/51/13 19/53/13
f 21/54/5 24/55/5 32/56/5 29/57/5
f 17/49/6 20/58/6 28/59/6 25/60/6
f 18/61/1 17/62/1 25/63/1 26/64/1
f 20/65/3 19/66/3 27/64/3 28/63/3
f 21/67/14 22/68/14 26/69/14 25/70/14
f 22/68/14 23/71/14 27/72/14 26/69/14
f 24/73/14 21/67/14 25/70/14 28/74/14
f 23/71/14 24/73/14 28/74/14 27/72/14
f 30/75/14 29/76/14 32/77/14 31/78/14
f 22/79/3 21/80/3 29/81/3 30/82/3
f 24/35/1 23/83/1 31/84/1 32/85/1
f 23/86/6 22/87/6 30/55/6 31/54/6
